<?xml version='1.0' encoding='iso-8859-1'?>
<!DOCTYPE svg PUBLIC '-//W3C//DTD SVG 1.1//EN' 'http://www.w3.org/Graphics/SVG/1.1/DTD/svg11.dtd'>
<svg version="1.1" xmlns="http://www.w3.org/2000/svg" viewBox="0 0 219.326 219.326" xmlns:xlink="http://www.w3.org/1999/xlink" enable-background="new 0 0 219.326 219.326">
  <g>
    <path d="m217.768,48.692l-17.924-22.146c-1.329-1.642-3.329-2.596-5.441-2.596s-4.112,0.954-5.441,2.596l-17.924,22.146c-1.009,1.246-1.559,2.801-1.559,4.404v21.817h-34.892v-21.817c0-1.603-0.55-3.158-1.559-4.404l-17.924-22.146c-1.329-1.642-3.329-2.596-5.441-2.596s-4.112,0.954-5.441,2.596l-17.924,22.146c-1.009,1.246-1.559,2.801-1.559,4.404v21.817h-34.891v-21.817c0-1.603-0.55-3.158-1.559-4.404l-17.924-22.145c-1.329-1.642-3.329-2.596-5.441-2.596s-4.112,0.954-5.441,2.596l-17.924,22.145c-1.009,1.246-1.559,2.801-1.559,4.404v28.817 90.587 15.875c0,3.866 3.134,7 7,7h35.848c3.866,0 7-3.134 7-7v-8.875h34.892v8.875c0,3.866 3.134,7 7,7h35.848c3.866,0 7-3.134 7-7v-8.875h34.892v8.875c0,3.866 3.134,7 7,7h35.848c3.866,0 7-3.134 7-7v-15.875-90.586-28.818c-0.002-1.603-0.552-3.158-1.56-4.404zm-34.289,6.882l10.924-13.497 10.924,13.497v33.339 76.587 15.875h-21.848v-125.801zm-84.74,125.801v-125.801l10.924-13.497 10.924,13.497v125.801h-21.848zm-84.739,0v-15.875-76.586-33.34l10.924-13.497 10.924,13.497v125.801h-21.848zm35.848-92.461h34.892v76.587h-34.892v-76.587zm84.739,0h34.892v76.587h-34.892v-76.587z"/>
  </g>
</svg>
