<?xml version='1.0' encoding='iso-8859-1'?>
<!DOCTYPE svg PUBLIC '-//W3C//DTD SVG 1.1//EN' 'http://www.w3.org/Graphics/SVG/1.1/DTD/svg11.dtd'>
<svg version="1.1" xmlns="http://www.w3.org/2000/svg" viewBox="0 0 302.262 302.262" xmlns:xlink="http://www.w3.org/1999/xlink" enable-background="new 0 0 302.262 302.262">
  <g>
    <path d="m260.244,113.461c3.719-9.807 2.382-20.815-3.576-29.447l-4.204-6.092c-1.641-2.376-2.692-5.148-3.04-8.016l-.892-7.347c-1.265-10.413-7.564-19.539-16.852-24.413l-6.552-3.439c-2.558-1.342-4.777-3.309-6.419-5.686l-4.203-6.09c-5.958-8.632-15.777-13.786-26.266-13.786h-7.4c-2.889,0-5.768-0.71-8.326-2.052l-6.552-3.439c-9.286-4.874-20.376-4.875-29.664,0l-6.552,3.439c-2.559,1.342-5.438,2.052-8.326,2.052h-7.4c-10.488,0-20.308,5.154-26.266,13.786l-4.203,6.089c-1.642,2.378-3.861,4.344-6.419,5.687l-6.552,3.439c-9.287,4.874-15.587,14-16.852,24.414l-.892,7.345c-0.348,2.868-1.399,5.64-3.041,8.018l-4.203,6.09c-5.958,8.632-7.295,19.641-3.576,29.448l2.624,6.917c1.024,2.702 1.382,5.645 1.033,8.514l-.892,7.345c-1.265,10.412 2.668,20.781 10.52,27.736l5.539,4.907c2.162,1.915 3.846,4.355 4.871,7.057l2.624,6.918c2.759,7.277 8.045,13.198 14.748,16.797l-28.909,70.519c-1.064,2.596-0.476,5.577 1.496,7.574 1.973,1.998 4.946,2.623 7.554,1.591l31.884-12.604 13.862,31.357c1.122,2.538 3.634,4.17 6.401,4.17 0.032,0 0.064,0 0.096,0 2.806-0.038 5.317-1.748 6.382-4.344l29.28-71.424 29.28,71.424c1.064,2.596 3.576,4.306 6.382,4.344 0.031,0 0.063,0 0.096,0 2.768,0 5.279-1.633 6.401-4.17l13.862-31.357 31.884,12.604c2.607,1.031 5.583,0.406 7.554-1.591 1.972-1.997 2.561-4.978 1.496-7.574l-28.909-70.519c6.703-3.599 11.989-9.52 14.748-16.797l2.624-6.918c1.025-2.702 2.709-5.143 4.871-7.058l5.539-4.907c7.852-6.956 11.784-17.324 10.52-27.735l-.892-7.347c-0.349-2.868 0.009-5.812 1.032-8.512l2.627-6.917zm-22.568,40.034l-5.539,4.907c-3.852,3.412-6.853,7.759-8.678,12.572l-2.624,6.919c-2.088,5.505-6.747,9.633-12.465,11.042l-7.185,1.771c-4.996,1.231-9.673,3.686-13.525,7.099l-5.539,4.907c-4.408,3.904-10.454,5.394-16.168,3.984l-7.185-1.77c-4.996-1.232-10.279-1.231-15.275,0l-7.186,1.771c-5.717,1.41-11.76-0.081-16.167-3.985l-5.539-4.907c-3.853-3.413-8.529-5.867-13.525-7.099l-7.186-1.771c-5.717-1.409-10.376-5.537-12.464-11.042l-2.624-6.919c-1.825-4.813-4.826-9.16-8.678-12.571l-5.539-4.907c-4.407-3.904-6.614-9.725-5.904-15.569l.892-7.346c0.62-5.108-0.017-10.352-1.841-15.165l-2.625-6.918c-2.087-5.505-1.337-11.685 2.009-16.531l4.201-6.089c2.925-4.235 4.798-9.174 5.419-14.285l.892-7.345c0.71-5.846 4.246-10.969 9.459-13.705l6.552-3.439c4.556-2.391 8.51-5.893 11.435-10.13l4.203-6.089c3.345-4.846 8.856-7.739 14.744-7.739h7.4c5.146,0 10.274-1.264 14.832-3.656l6.552-3.439c5.213-2.736 11.438-2.735 16.652,0l6.552,3.439c4.558,2.392 9.687,3.656 14.832,3.656h7.4c5.888,0 11.399,2.893 14.744,7.738l4.203,6.091c2.925,4.236 6.879,7.738 11.435,10.129l6.552,3.439c5.213,2.736 8.749,7.859 9.459,13.704l.892,7.346c0.621,5.11 2.494,10.049 5.418,14.283l4.203,6.091c3.345,4.846 4.095,11.025 2.008,16.529l-2.626,6.92c-1.823,4.812-2.46,10.056-1.84,15.163l.892,7.347c0.709,5.845-1.498,11.665-5.905,15.569zm-31.633,97.747c-3.494-1.382-7.456,0.242-8.976,3.68l-9.937,22.478-23.305-56.848c9.821,2.018 20.043-0.683 27.579-7.361l5.539-4.907c2.162-1.916 4.788-3.294 7.594-3.985l1.284-.317 23.078,56.294-22.856-9.034zm-100.849,3.68c-1.52-3.438-5.485-5.062-8.976-3.68l-22.855,9.035 23.078-56.294 1.284,.316c2.806,0.691 5.432,2.07 7.594,3.985l5.539,4.906c5.902,5.23 13.452,8.028 21.164,8.027 2.137,0 4.285-0.228 6.415-0.666l-23.306,56.849-9.937-22.478z"/>
    <path d="m151.131,187.376c42.329,0 76.767-34.438 76.767-76.767s-34.438-76.767-76.767-76.767-76.767,34.438-76.767,76.767 34.438,76.767 76.767,76.767zm0-139.533c34.609,1.42109e-14 62.767,28.157 62.767,62.767s-28.157,62.767-62.767,62.767-62.767-28.157-62.767-62.767 28.158-62.767 62.767-62.767z"/>
    <path d="m118.476,150.652h65.311c3.866,0 7-3.134 7-7v-41.46c0-2.197-1.031-4.266-2.785-5.589l-32.655-24.625c-2.496-1.882-5.934-1.882-8.43,0l-32.655,24.625c-1.754,1.323-2.785,3.392-2.785,5.589v41.46c-0.001,3.866 3.132,7 6.999,7zm7-44.972l25.655-19.347 25.655,19.347v30.971h-18.188v-13.923c0-1.827-1.481-3.308-3.308-3.308h-8.318c-1.827,0-3.308,1.481-3.308,3.308v13.923h-18.188v-30.971z"/>
  </g>
</svg>
