<?xml version='1.0' encoding='iso-8859-1'?>
<!DOCTYPE svg PUBLIC '-//W3C//DTD SVG 1.1//EN' 'http://www.w3.org/Graphics/SVG/1.1/DTD/svg11.dtd'>
<svg version="1.1" xmlns="http://www.w3.org/2000/svg" viewBox="0 0 316.109 316.109" xmlns:xlink="http://www.w3.org/1999/xlink" enable-background="new 0 0 316.109 316.109">
  <g>
    <path d="m309.109,118.86h-139.324v-23.198h3.36c3.866,0 7-3.134 7-7v-22.653c0-3.866-3.134-7-7-7h-166.145c-3.866,0-7,3.134-7,7v22.653c0,3.866 3.134,7 7,7h3.36v149.929c0,3.866 3.134,7 7,7h145.425c3.866,0 7-3.134 7-7v-90.078h112.503v90.078c0,3.866 3.134,7 7,7s7-3.134 7-7v-90.078h12.821c3.866,0 7-3.134 7-7v-22.653c-5.68434e-14-3.867-3.133-7-7-7zm-7,22.653h-132.324v-8.653h132.324v8.653zm-288.109-59.851v-8.653h152.146v8.653h-3.36-145.426-3.36zm10.36,14h131.425v30.198 22.653 90.078h-41.284v-49.159c0-3.866-3.134-7-7-7h-34.856c-3.866,0-7,3.134-7,7v49.159h-41.285v-142.929zm76.141,142.929h-20.856v-42.159h20.856v42.159z"/>
    <path d="m263.78,199.817v-13.653c0-9.376-7.628-17.004-17.004-17.004h-39.825c-9.376,0-17.004,7.628-17.004,17.004v13.653c-5.811,2.115-9.979,7.678-9.979,14.211v27.788c0,3.866 3.134,7 7,7h4.011v1.286c0,3.866 3.134,7 7,7s7-3.134 7-7v-1.286h43.77v1.286c0,3.866 3.134,7 7,7s7-3.134 7-7v-1.286h4.011c3.866,0 7-3.134 7-7v-27.788c-0.001-6.533-4.169-12.096-9.98-14.211zm-69.812,34.998v-20.788c0-0.625 0.509-1.134 1.134-1.134h63.523c0.625,0 1.134,0.509 1.134,1.134v20.788h-65.791zm12.983-51.655h39.825c1.656,0 3.004,1.348 3.004,3.004v12.729h-45.833v-12.729c0-1.656 1.348-3.004 3.004-3.004z"/>
    <path d="m204.425,219.978c-1.84,0-3.641,0.74-4.95,2.05-1.3,1.3-2.05,3.11-2.05,4.95s0.75,3.64 2.05,4.95c1.31,1.3 3.11,2.05 4.95,2.05 1.85,0 3.649-0.75 4.949-2.05 1.301-1.3 2.051-3.11 2.051-4.95 0-1.85-0.75-3.65-2.051-4.95-1.3-1.31-3.1-2.05-4.949-2.05z"/>
    <path d="m249.295,219.978c-1.841,0-3.641,0.74-4.95,2.05-1.3,1.3-2.05,3.1-2.05,4.95 0,1.84 0.75,3.64 2.05,4.95 1.31,1.3 3.109,2.05 4.95,2.05 1.84,0 3.649-0.75 4.949-2.05 1.301-1.31 2.051-3.11 2.051-4.95 0-1.85-0.75-3.65-2.051-4.95-1.3-1.31-3.099-2.05-4.949-2.05z"/>
    <path d="m56.055,116.098c-3.866,0-7,3.134-7,7v14.762c0,3.866 3.134,7 7,7s7-3.134 7-7v-14.762c0-3.866-3.134-7-7-7z"/>
    <path d="m90.073,144.86c3.866,0 7-3.134 7-7v-14.762c0-3.866-3.134-7-7-7s-7,3.134-7,7v14.762c0,3.866 3.134,7 7,7z"/>
    <path d="m124.091,144.86c3.866,0 7-3.134 7-7v-14.762c0-3.866-3.134-7-7-7s-7,3.134-7,7v14.762c-1.42109e-14,3.866 3.134,7 7,7z"/>
  </g>
</svg>
