<?xml version='1.0' encoding='iso-8859-1'?>
<!DOCTYPE svg PUBLIC '-//W3C//DTD SVG 1.1//EN' 'http://www.w3.org/Graphics/SVG/1.1/DTD/svg11.dtd'>
<svg version="1.1" xmlns="http://www.w3.org/2000/svg" viewBox="0 0 212.755 212.755" xmlns:xlink="http://www.w3.org/1999/xlink" enable-background="new 0 0 212.755 212.755">
  <g>
    <path d="M106.377,0C47.721,0,0,47.721,0,106.377s47.721,106.377,106.377,106.377s106.377-47.721,106.377-106.377   S165.034,0,106.377,0z M106.377,198.755C55.44,198.755,14,157.314,14,106.377S55.44,14,106.377,14s92.377,41.44,92.377,92.377   S157.314,198.755,106.377,198.755z"/>
    <path d="m113.377,100.096v-39.744c3.961,1.471 7.417,4.17 9.82,7.82 2.127,3.229 6.468,4.123 9.696,1.997 3.229-2.126 4.123-6.467 1.996-9.696-5.029-7.636-12.778-12.82-21.512-14.647v-11.12c0-3.866-3.134-7-7-7s-7,3.134-7,7v11.099c-15.493,3.23-27.168,16.989-27.168,33.426 0,16.437 11.676,30.198 27.168,33.428v39.744c-3.961-1.471-7.417-4.17-9.82-7.82-2.127-3.229-6.468-4.124-9.696-1.997-3.229,2.126-4.123,6.467-1.996,9.696 5.029,7.636 12.778,12.82 21.512,14.647v11.119c0,3.866 3.134,7 7,7s7-3.134 7-7v-11.098c15.493-3.23 27.168-16.989 27.168-33.426-2.84217e-14-16.437-11.675-30.198-27.168-33.428zm-27.168-20.865c0-8.653 5.494-16.027 13.168-18.874v37.748c-7.674-2.847-13.168-10.221-13.168-18.874zm27.168,73.166v-37.748c7.674,2.847 13.168,10.221 13.168,18.874s-5.493,16.027-13.168,18.874z"/>
  </g>
</svg>
